<?xml version="1.0" standalone="no"?>
<!DOCTYPE svg PUBLIC "-//W3C//DTD SVG 20010904//EN"
 "http://www.w3.org/TR/2001/REC-SVG-20010904/DTD/svg10.dtd">
<svg version="1.0" xmlns="http://www.w3.org/2000/svg"
 width="765.428410pt" height="329.863732pt" viewBox="0 0 765.428410 329.863732"
 preserveAspectRatio="xMidYMid meet">
<metadata>
Created by potrace 1.16, written by Peter Selinger 2001-2019
</metadata>
<g transform="translate(-17.518464,391.932151) scale(0.100000,-0.100000)"
fill="white" stroke="white">
<path d="M6865 3899 c-475 -35 -1216 -126 -1705 -210 -806 -139 -1894 -375
-2695 -585 -560 -147 -1375 -382 -1775 -513 -135 -43 -292 -94 -350 -111 -113
-34 -143 -54 -161 -107 -15 -46 12 -101 64 -126 37 -19 37 -19 143 13 58 17
165 58 237 92 192 88 491 208 517 208 4 0 10 -26 13 -59 4 -32 22 -135 41
-229 90 -438 116 -720 116 -1264 0 -335 1 -349 20 -368 27 -27 71 -26 98 3 21
22 21 25 17 462 -5 573 -19 787 -80 1229 -19 137 -35 259 -35 271 0 20 19 29
188 83 1030 334 2407 668 3652 886 530 93 1702 233 1731 207 14 -13 42 -1350
52 -2464 l2 -269 28 -24 c30 -26 72 -31 98 -11 21 16 49 71 49 95 0 10 8 34
17 53 9 18 33 90 54 159 65 220 135 415 197 547 92 196 228 510 297 689 39 99
76 179 99 208 60 79 44 133 -47 162 -48 15 -76 15 -268 6 -118 -6 -229 -14
-246 -18 l-33 -6 25 44 c14 25 34 71 45 103 11 32 53 115 94 184 40 69 106
189 146 266 40 77 102 184 137 238 63 97 76 140 51 165 -19 19 -533 13 -833
-9z m664 -105 c2 -1 -6 -15 -17 -31 -17 -25 -60 -103 -191 -347 -23 -43 -64
-113 -91 -156 -27 -43 -56 -95 -65 -116 -8 -20 -16 -35 -18 -33 -1 2 0 94 4
204 4 110 8 264 10 342 l3 142 60 4 c62 4 298 -3 305 -9z m88 -1008 c1 -1 -13
-40 -32 -87 -19 -46 -57 -140 -84 -209 -72 -181 -189 -457 -253 -595 -31 -66
-68 -160 -83 -210 -16 -49 -31 -94 -35 -98 -7 -8 -6 102 6 829 l6 341 104 19
c77 14 136 18 236 16 73 -2 134 -5 135 -6z"/>
<path d="M5631 2986 c-6 -8 -31 -54 -55 -102 -71 -147 -183 -351 -270 -492
-44 -73 -109 -178 -143 -233 -61 -101 -62 -101 -67 -68 -20 122 -39 401 -43
614 -2 157 -8 254 -15 262 -15 18 -53 16 -74 -4 -15 -16 -16 -38 -11 -238 6
-200 37 -665 53 -775 3 -25 3 -42 0 -39 -4 3 -37 57 -75 120 -84 141 -204 331
-324 512 -62 93 -99 140 -114 143 -30 8 -69 -2 -75 -18 -3 -7 -2 -134 3 -283
4 -148 8 -411 8 -583 l1 -314 30 -29 c24 -25 33 -28 49 -19 48 25 51 40 51
288 0 207 -4 300 -25 605 -3 42 -2 77 2 77 5 -1 37 -44 73 -98 36 -53 94 -137
129 -187 76 -105 262 -398 297 -466 25 -51 51 -66 84 -49 32 17 34 55 12 195
-26 156 -28 203 -8 186 8 -7 35 -9 72 -5 53 5 71 2 184 -41 69 -25 152 -58
185 -73 54 -24 438 -229 492 -262 17 -11 27 -11 46 -3 22 10 25 19 29 75 5 90
66 211 152 305 40 43 66 80 66 93 0 16 -28 49 -85 102 -158 148 -301 347 -512
711 -22 40 -48 80 -57 90 -19 21 -49 22 -65 3z m68 -199 c19 -29 56 -90 83
-137 125 -214 242 -374 360 -492 43 -43 78 -81 78 -84 0 -3 -20 -31 -44 -62
-48 -62 -106 -173 -126 -239 -7 -24 -15 -43 -17 -43 -8 0 -70 34 -236 127
-169 95 -364 186 -489 226 l-67 22 90 145 c98 158 200 340 275 493 27 53 51
97 54 96 3 0 20 -24 39 -52z"/>
<path d="M3952 2961 c-8 -5 -23 -39 -33 -77 -29 -105 -23 -342 17 -670 l6 -51
-56 -23 c-56 -22 -283 -167 -360 -229 -22 -17 -43 -28 -46 -24 -9 9 -66 185
-109 331 -36 123 -78 333 -90 450 -10 94 -23 115 -72 115 -51 0 -62 -24 -55
-123 16 -243 311 -1079 556 -1575 119 -242 206 -379 242 -383 19 -2 30 3 38
18 10 18 1 37 -63 143 -41 67 -88 147 -105 177 -57 102 -191 417 -268 628
l-34 93 26 9 c14 6 45 25 67 44 99 79 318 216 345 216 5 0 19 -73 31 -162 13
-90 31 -208 42 -263 10 -55 23 -133 29 -174 12 -85 21 -101 59 -101 59 0 62
25 27 232 -32 186 -83 601 -96 775 -5 76 -10 213 -10 306 0 136 -4 181 -20
239 -22 81 -38 99 -68 79z"/>
<path d="M6618 2739 c-49 -11 -257 -94 -330 -130 -87 -44 -106 -90 -52 -126
22 -14 28 -13 83 16 76 39 264 116 322 131 71 18 99 31 111 53 9 17 6 24 -16
44 -28 24 -56 27 -118 12z"/>
<path d="M2954 2365 c-9 -13 -42 -98 -73 -187 -76 -218 -212 -520 -283 -633
-14 -22 -35 -59 -47 -83 -20 -39 -21 -46 -8 -65 8 -12 32 -27 54 -34 95 -29
556 -324 708 -453 102 -87 127 -103 150 -94 19 8 34 42 27 64 -17 56 -497 403
-729 527 l-93 50 32 49 c32 49 126 242 200 409 23 50 67 166 99 260 54 157 57
171 43 192 -20 31 -59 30 -80 -2z"/>
<path d="M1669 2304 c-10 -12 -14 -90 -17 -335 l-4 -319 -29 -29 c-34 -35 -39
-82 -10 -108 75 -70 92 -83 107 -83 42 0 106 -49 444 -340 91 -78 175 -149
187 -157 44 -30 102 10 89 60 -7 30 -490 459 -567 504 -31 18 -38 33 -16 33 8
0 85 22 173 49 87 27 240 70 339 96 253 66 257 67 266 92 13 35 -24 65 -131
108 -163 64 -498 241 -600 315 -192 140 -204 146 -231 114z m486 -381 c110
-55 215 -106 233 -113 18 -7 29 -16 25 -20 -9 -9 -380 -95 -497 -116 -45 -8
-96 -14 -113 -14 l-33 0 0 244 0 245 93 -64 c50 -34 182 -107 292 -162z"/>
</g>
</svg>
